<svg xmlns="http://www.w3.org/2000/svg" xmlns:xlink="http://www.w3.org/1999/xlink" width="1080" zoomAndPan="magnify" viewBox="0 0 810 809.999993" height="1080" preserveAspectRatio="xMidYMid meet" version="1.0"><defs><filter x="0%" y="0%" width="100%" height="100%" id="cac0137d81"><feColorMatrix values="0 0 0 0 1 0 0 0 0 1 0 0 0 0 1 0 0 0 1 0" color-interpolation-filters="sRGB"/></filter><g/><mask id="7c3f353e54"><g filter="url(#cac0137d81)"><rect x="-81" width="972" fill="#000000" y="-80.999999" height="971.999992" fill-opacity="0.95"/></g></mask><clipPath id="915b14587c"><path d="M 0.535156 1.097656 L 91.070312 1.097656 L 91.070312 69 L 0.535156 69 Z M 0.535156 1.097656 " clip-rule="nonzero"/></clipPath><clipPath id="23e84fe09a"><path d="M 23.167969 1.097656 L 91.070312 1.097656 L 68.4375 69 L 0.535156 69 Z M 23.167969 1.097656 " clip-rule="nonzero"/></clipPath><clipPath id="48f25a03d0"><rect x="0" width="92" y="0" height="70"/></clipPath><mask id="fda2815f4e"><g filter="url(#cac0137d81)"><rect x="-81" width="972" fill="#000000" y="-80.999999" height="971.999992" fill-opacity="0.95"/></g></mask><clipPath id="091e73737d"><path d="M 0.117188 1 L 90.65625 1 L 90.65625 68.902344 L 0.117188 68.902344 Z M 0.117188 1 " clip-rule="nonzero"/></clipPath><clipPath id="a3bf6c53be"><path d="M 22.75 1 L 90.65625 1 L 68.019531 68.902344 L 0.117188 68.902344 Z M 22.75 1 " clip-rule="nonzero"/></clipPath><clipPath id="e31914a7f0"><rect x="0" width="91" y="0" height="70"/></clipPath><mask id="6b82103db5"><g filter="url(#cac0137d81)"><rect x="-81" width="972" fill="#000000" y="-80.999999" height="971.999992" fill-opacity="0.95"/></g></mask><clipPath id="c7c381d77e"><path d="M 0.847656 1.097656 L 91.386719 1.097656 L 91.386719 69 L 0.847656 69 Z M 0.847656 1.097656 " clip-rule="nonzero"/></clipPath><clipPath id="9ce3f6433c"><path d="M 23.480469 1.097656 L 91.386719 1.097656 L 68.75 69 L 0.847656 69 Z M 23.480469 1.097656 " clip-rule="nonzero"/></clipPath><clipPath id="9e132c8240"><rect x="0" width="92" y="0" height="70"/></clipPath><mask id="7ffc25bf48"><g filter="url(#cac0137d81)"><rect x="-81" width="972" fill="#000000" y="-80.999999" height="971.999992" fill-opacity="0.95"/></g></mask><clipPath id="67abcce813"><path d="M 0.308594 1 L 90.847656 1 L 90.847656 68.902344 L 0.308594 68.902344 Z M 0.308594 1 " clip-rule="nonzero"/></clipPath><clipPath id="11f2a70d6d"><path d="M 22.945312 1 L 90.847656 1 L 68.214844 68.902344 L 0.308594 68.902344 Z M 22.945312 1 " clip-rule="nonzero"/></clipPath><clipPath id="c8dde3e1ac"><rect x="0" width="91" y="0" height="70"/></clipPath><mask id="2e94b69fe1"><g filter="url(#cac0137d81)"><rect x="-81" width="972" fill="#000000" y="-80.999999" height="971.999992" fill-opacity="0.95"/></g></mask><clipPath id="525aaa546b"><path d="M 0 1 L 88.597656 1 L 88.597656 68.902344 L 0 68.902344 Z M 0 1 " clip-rule="nonzero"/></clipPath><clipPath id="cd14ce2e30"><path d="M 20.695312 1 L 88.597656 1 L 65.964844 68.902344 L -1.9375 68.902344 Z M 20.695312 1 " clip-rule="nonzero"/></clipPath><clipPath id="1e51495e28"><rect x="0" width="89" y="0" height="70"/></clipPath><clipPath id="1e3126aa0a"><path d="M 15.007812 347 L 133.507812 347 L 133.507812 463 L 15.007812 463 Z M 15.007812 347 " clip-rule="nonzero"/></clipPath><mask id="1d74a3644d"><g filter="url(#cac0137d81)"><rect x="-81" width="972" fill="#000000" y="-80.999999" height="971.999992" fill-opacity="0.95"/></g></mask><clipPath id="2220b8b69e"><path d="M 0 1.097656 L 43.328125 1.097656 L 43.328125 69 L 0 69 Z M 0 1.097656 " clip-rule="nonzero"/></clipPath><clipPath id="8ee2bdf633"><path d="M -24.574219 1.097656 L 43.328125 1.097656 L 20.695312 69 L -47.207031 69 Z M -24.574219 1.097656 " clip-rule="nonzero"/></clipPath><clipPath id="232609c253"><rect x="0" width="44" y="0" height="70"/></clipPath></defs><path fill="#ffffff" d="M 0 336 L 810 336 L 810 471 L 0 471 Z M 0 336 " fill-opacity="1" fill-rule="nonzero"/><g mask="url(#7c3f353e54)"><g transform="matrix(1, 0, 0, 1, 88, 336)"><g clip-path="url(#48f25a03d0)"><g clip-path="url(#915b14587c)"><g clip-path="url(#23e84fe09a)"><path fill="#1d4fd8" d="M 0.535156 1.097656 L 91.070312 1.097656 L 91.070312 69 L 0.535156 69 Z M 0.535156 1.097656 " fill-opacity="1" fill-rule="nonzero"/></g></g></g></g></g><g mask="url(#fda2815f4e)"><g transform="matrix(1, 0, 0, 1, 269, 404)"><g clip-path="url(#e31914a7f0)"><g clip-path="url(#091e73737d)"><g clip-path="url(#a3bf6c53be)"><path fill="#1d4fd8" d="M 0.117188 1 L 90.65625 1 L 90.65625 68.902344 L 0.117188 68.902344 Z M 0.117188 1 " fill-opacity="1" fill-rule="nonzero"/></g></g></g></g></g><g mask="url(#6b82103db5)"><g transform="matrix(1, 0, 0, 1, 223, 336)"><g clip-path="url(#9e132c8240)"><g clip-path="url(#c7c381d77e)"><g clip-path="url(#9ce3f6433c)"><path fill="#1d4fd8" d="M 0.847656 1.097656 L 91.386719 1.097656 L 91.386719 69 L 0.847656 69 Z M 0.847656 1.097656 " fill-opacity="1" fill-rule="nonzero"/></g></g></g></g></g><g mask="url(#7ffc25bf48)"><g transform="matrix(1, 0, 0, 1, 133, 404)"><g clip-path="url(#c8dde3e1ac)"><g clip-path="url(#67abcce813)"><g clip-path="url(#11f2a70d6d)"><path fill="#1d4fd8" d="M 0.308594 1 L 90.847656 1 L 90.847656 68.902344 L 0.308594 68.902344 Z M 0.308594 1 " fill-opacity="1" fill-rule="nonzero"/></g></g></g></g></g><g mask="url(#2e94b69fe1)"><g transform="matrix(1, 0, 0, 1, 0, 404)"><g clip-path="url(#1e51495e28)"><g clip-path="url(#525aaa546b)"><g clip-path="url(#cd14ce2e30)"><path fill="#1d4fd8" d="M -1.9375 1 L 88.597656 1 L 88.597656 68.902344 L -1.9375 68.902344 Z M -1.9375 1 " fill-opacity="1" fill-rule="nonzero"/></g></g></g></g></g><g clip-path="url(#1e3126aa0a)"><path fill="#000000" d="M 63.3125 414.777344 C 62.394531 415.800781 61.40625 416.757812 60.355469 417.644531 L 61.164062 418.597656 C 62.261719 417.675781 63.289062 416.679688 64.246094 415.613281 Z M 68.707031 409.675781 L 68.492188 410.90625 C 69.851562 411.140625 71.191406 411.460938 72.511719 411.863281 L 72.878906 410.667969 C 71.507812 410.246094 70.117188 409.917969 68.707031 409.675781 Z M 63.863281 441.71875 L 63.28125 442.828125 C 64.582031 443.507812 65.945312 444.011719 67.371094 444.34375 L 67.65625 443.125 C 66.332031 442.816406 65.066406 442.347656 63.863281 441.71875 Z M 59.269531 437.980469 C 58.820312 437.429688 58.40625 436.851562 58.03125 436.25 L 56.972656 436.917969 C 57.375 437.5625 57.816406 438.179688 58.296875 438.769531 C 58.738281 439.3125 59.214844 439.820312 59.722656 440.300781 L 60.578125 439.386719 C 60.109375 438.945312 59.671875 438.476562 59.265625 437.980469 Z M 55.921875 409.585938 C 54.519531 409.789062 53.109375 410.0625 51.726562 410.402344 L 52.023438 411.617188 C 53.367188 411.289062 54.738281 411.023438 56.101562 410.824219 Z M 55.511719 428.644531 L 54.261719 428.695312 C 54.320312 430.09375 54.597656 431.539062 55.09375 432.996094 L 56.277344 432.59375 C 55.820312 431.25 55.5625 429.921875 55.511719 428.644531 Z M 105.015625 377.921875 C 104.105469 378.957031 103.128906 379.921875 102.085938 380.824219 L 102.902344 381.769531 C 103.988281 380.832031 105.007812 379.828125 105.957031 378.75 Z M 91.164062 386.125 C 90.550781 386.242188 89.929688 386.351562 89.332031 386.457031 C 88.574219 386.585938 87.792969 386.722656 87.015625 386.882812 L 87.273438 388.109375 C 88.027344 387.953125 88.800781 387.820312 89.546875 387.6875 C 90.152344 387.585938 90.777344 387.476562 91.40625 387.351562 Z M 98.78125 383.265625 C 97.625 383.988281 96.40625 384.585938 95.125 385.058594 L 95.558594 386.230469 C 96.917969 385.726562 98.210938 385.09375 99.441406 384.328125 Z M 47.628906 411.609375 C 46.277344 412.078125 44.941406 412.617188 43.667969 413.207031 L 44.191406 414.34375 C 45.429688 413.769531 46.726562 413.246094 48.039062 412.789062 Z M 75.691406 442.984375 C 74.378906 443.335938 73.039062 443.523438 71.679688 443.546875 L 71.703125 444.800781 C 73.164062 444.773438 74.601562 444.574219 76.015625 444.195312 Z M 76.886719 412.222656 L 76.351562 413.351562 C 77.589844 413.941406 78.773438 414.628906 79.902344 415.410156 L 80.617188 414.386719 C 79.433594 413.5625 78.191406 412.839844 76.886719 412.222656 Z M 82.75 439.082031 C 81.878906 439.851562 80.945312 440.539062 79.957031 441.148438 C 79.785156 441.253906 79.613281 441.359375 79.4375 441.457031 L 80.050781 442.546875 C 80.238281 442.441406 80.429688 442.328125 80.613281 442.214844 C 81.664062 441.566406 82.652344 440.835938 83.578125 440.019531 Z M 89.425781 428.09375 C 89.386719 426.800781 89.160156 425.539062 88.75 424.3125 L 87.5625 424.710938 C 87.933594 425.820312 88.140625 426.960938 88.175781 428.128906 C 88.179688 428.238281 88.179688 428.351562 88.179688 428.460938 C 88.179688 428.523438 88.179688 428.582031 88.179688 428.640625 L 89.433594 428.660156 C 89.433594 428.59375 89.433594 428.527344 89.433594 428.460938 C 89.433594 428.339844 89.429688 428.214844 89.425781 428.09375 Z M 87.433594 432.550781 C 86.984375 433.757812 86.335938 434.949219 85.507812 436.085938 L 86.515625 436.824219 C 87.417969 435.59375 88.121094 434.300781 88.609375 432.984375 Z M 39.882812 415.210938 C 38.664062 415.957031 37.484375 416.761719 36.351562 417.636719 L 37.117188 418.628906 C 38.210938 417.785156 39.351562 417.003906 40.53125 416.28125 Z M 67.765625 407.894531 C 67.144531 409.234375 66.5 410.417969 65.796875 411.511719 L 66.847656 412.1875 C 67.621094 410.980469 68.304688 409.722656 68.902344 408.421875 Z M 62.148438 409.128906 C 61.496094 409.128906 60.832031 409.144531 60.171875 409.175781 L 60.230469 410.425781 C 60.871094 410.394531 61.515625 410.378906 62.148438 410.378906 C 62.894531 410.378906 63.644531 410.398438 64.378906 410.441406 L 64.449219 409.191406 C 63.695312 409.148438 62.917969 409.128906 62.148438 409.128906 Z M 71 400.125 C 70.429688 401.371094 69.921875 402.652344 69.433594 403.894531 L 69.375 404.042969 L 70.539062 404.503906 L 70.597656 404.351562 C 71.105469 403.070312 71.582031 401.863281 72.136719 400.648438 Z M 75.800781 393.007812 C 74.78125 394.035156 73.871094 395.152344 73.074219 396.355469 L 74.113281 397.050781 C 74.871094 395.910156 75.730469 394.859375 76.691406 393.886719 Z M 83.933594 417.128906 L 83.070312 418.039062 C 84.128906 419.050781 85 420.0625 85.738281 421.125 L 86.765625 420.417969 C 85.992188 419.292969 85.039062 418.191406 83.933594 417.128906 Z M 82.878906 388.117188 C 81.539062 388.675781 80.277344 389.378906 79.09375 390.222656 L 79.8125 391.246094 C 80.921875 390.457031 82.105469 389.796875 83.359375 389.273438 Z M 23.285156 434.273438 C 22.714844 435.582031 22.207031 436.914062 21.769531 438.269531 L 22.960938 438.65625 C 23.386719 437.335938 23.875 436.046875 24.433594 434.777344 Z M 33.097656 420.40625 C 32.0625 421.382812 31.066406 422.417969 30.132812 423.488281 L 31.078125 424.308594 C 31.980469 423.273438 32.949219 422.265625 33.957031 421.320312 Z M 57.164062 420.519531 C 56.125 421.695312 55.378906 422.9375 54.890625 424.316406 L 56.070312 424.734375 C 56.503906 423.511719 57.167969 422.402344 58.101562 421.351562 Z M 27.492188 426.847656 C 26.667969 428.011719 25.90625 429.214844 25.203125 430.453125 L 26.289062 431.070312 C 26.972656 429.867188 27.714844 428.699219 28.511719 427.570312 Z M 21.019531 456.84375 C 20.613281 456.84375 20.222656 456.921875 19.847656 457.078125 C 19.472656 457.234375 19.140625 457.453125 18.855469 457.742188 C 18.566406 458.027344 18.347656 458.359375 18.191406 458.734375 C 18.035156 459.109375 17.957031 459.5 17.957031 459.90625 C 17.957031 460.3125 18.035156 460.703125 18.191406 461.078125 C 18.347656 461.453125 18.566406 461.78125 18.855469 462.070312 C 19.140625 462.355469 19.472656 462.578125 19.847656 462.734375 C 20.222656 462.886719 20.613281 462.964844 21.019531 462.964844 C 21.425781 462.964844 21.816406 462.886719 22.191406 462.734375 C 22.566406 462.578125 22.898438 462.355469 23.183594 462.070312 C 23.472656 461.78125 23.691406 461.453125 23.847656 461.078125 C 24.003906 460.703125 24.082031 460.3125 24.082031 459.90625 C 24.082031 459.5 24.003906 459.109375 23.847656 458.734375 C 23.691406 458.359375 23.472656 458.027344 23.183594 457.742188 C 22.898438 457.453125 22.566406 457.234375 22.191406 457.078125 C 21.816406 456.921875 21.425781 456.84375 21.019531 456.84375 Z M 21.019531 438.429688 C 20.625 438.429688 20.234375 438.46875 19.847656 438.542969 C 19.460938 438.621094 19.085938 438.734375 18.71875 438.886719 C 18.355469 439.035156 18.007812 439.222656 17.679688 439.441406 C 17.351562 439.660156 17.046875 439.910156 16.769531 440.1875 C 16.488281 440.46875 16.242188 440.769531 16.023438 441.097656 C 15.800781 441.425781 15.617188 441.773438 15.464844 442.136719 C 15.316406 442.503906 15.203125 442.878906 15.125 443.265625 C 15.046875 443.652344 15.007812 444.042969 15.007812 444.4375 C 15.007812 448.460938 17.972656 452.324219 19.738281 454.265625 C 20.042969 454.597656 20.308594 454.875 20.523438 455.089844 C 20.542969 455.109375 20.566406 455.132812 20.585938 455.152344 C 20.703125 455.269531 20.847656 455.328125 21.011719 455.324219 C 21.179688 455.320312 21.316406 455.257812 21.429688 455.132812 C 22.789062 453.667969 27.03125 448.738281 27.03125 444.4375 C 27.03125 444.042969 26.992188 443.652344 26.914062 443.265625 C 26.835938 442.878906 26.722656 442.503906 26.570312 442.136719 C 26.421875 441.773438 26.234375 441.425781 26.015625 441.097656 C 25.796875 440.769531 25.546875 440.46875 25.269531 440.1875 C 24.992188 439.910156 24.6875 439.660156 24.359375 439.441406 C 24.03125 439.222656 23.683594 439.035156 23.320312 438.886719 C 22.953125 438.734375 22.578125 438.621094 22.191406 438.542969 C 21.804688 438.46875 21.414062 438.429688 21.019531 438.429688 Z M 21.019531 447.054688 C 20.613281 447.054688 20.222656 446.976562 19.847656 446.820312 C 19.472656 446.664062 19.140625 446.445312 18.855469 446.15625 C 18.566406 445.871094 18.347656 445.539062 18.191406 445.164062 C 18.035156 444.789062 17.957031 444.398438 17.957031 443.992188 C 17.957031 443.585938 18.035156 443.195312 18.191406 442.820312 C 18.347656 442.445312 18.566406 442.113281 18.855469 441.828125 C 19.140625 441.542969 19.472656 441.320312 19.847656 441.164062 C 20.222656 441.007812 20.613281 440.933594 21.019531 440.933594 C 21.425781 440.933594 21.816406 441.011719 22.191406 441.164062 C 22.566406 441.320312 22.898438 441.542969 23.183594 441.828125 C 23.472656 442.117188 23.691406 442.449219 23.847656 442.824219 C 24.003906 443.199219 24.082031 443.589844 24.082031 443.992188 C 24.082031 444.398438 24.003906 444.789062 23.847656 445.164062 C 23.691406 445.539062 23.46875 445.871094 23.183594 446.15625 C 22.894531 446.445312 22.566406 446.664062 22.191406 446.820312 C 21.816406 446.976562 21.425781 447.054688 21.019531 447.054688 Z M 127.664062 363.292969 L 128.089844 362.773438 C 128.257812 362.570312 128.4375 362.375 128.625 362.191406 L 130.871094 360.027344 C 132.332031 358.621094 133.507812 356.210938 133.359375 354.1875 C 133.230469 352.449219 131.902344 351.054688 130.476562 349.824219 L 129.863281 349.292969 C 128.4375 348.066406 126.859375 346.957031 125.121094 347.085938 C 123.097656 347.234375 120.886719 348.746094 119.707031 350.398438 L 117.898438 352.9375 C 117.746094 353.152344 117.578125 353.359375 117.402344 353.554688 L 116.949219 354.054688 C 115.878906 353.371094 115.476562 354.160156 115.476562 354.160156 L 116.417969 354.636719 L 107.472656 364.488281 C 105.996094 366.199219 103.304688 372.125 105.011719 373.597656 L 110.082031 377.96875 C 111.789062 379.441406 117.257812 375.90625 118.730469 374.199219 L 127.164062 363.902344 L 127.777344 364.765625 C 127.777344 364.765625 128.496094 364.25 127.664062 363.292969 Z M 122.597656 367.808594 C 122.535156 367.773438 122.46875 367.742188 122.402344 367.710938 C 122.132812 367.582031 121.859375 367.460938 121.582031 367.347656 L 123.628906 364.976562 C 123.976562 364.570312 126.5 362.957031 126.5 362.957031 C 126.5 362.957031 124.675781 365.363281 122.597656 367.808594 Z M 113.394531 376.25 C 111.3125 375.878906 109.203125 373.859375 109.203125 373.859375 C 109.203125 373.859375 106.898438 372.070312 106.226562 370.070312 C 106.183594 369.941406 106.207031 369.828125 106.300781 369.730469 L 109.375 366.402344 C 109.449219 366.324219 109.539062 366.289062 109.644531 366.292969 C 109.753906 366.300781 109.839844 366.347656 109.902344 366.433594 C 110.375 367.078125 111.640625 368.652344 112.820312 369.667969 C 114 370.679688 115.742188 371.707031 116.449219 372.078125 C 116.546875 372.128906 116.605469 372.207031 116.625 372.3125 C 116.648438 372.414062 116.625 372.511719 116.558594 372.59375 L 113.71875 376.125 C 113.632812 376.230469 113.523438 376.269531 113.394531 376.25 Z M 117.453125 355.152344 C 117.453125 355.152344 116.226562 357.886719 115.875 358.289062 L 113.828125 360.664062 C 113.675781 360.40625 113.519531 360.152344 113.351562 359.90625 C 113.308594 359.84375 113.269531 359.785156 113.226562 359.726562 C 115.339844 357.308594 117.449219 355.152344 117.449219 355.152344 Z M 123.9375 364.015625 C 123.9375 364.015625 122.371094 361.863281 120.757812 360.46875 C 119.140625 359.078125 116.78125 357.84375 116.78125 357.84375 L 117.859375 355.652344 L 119.046875 353.242188 C 119.046875 353.242188 119.246094 353.195312 119.613281 353.207031 C 120.496094 353.234375 122.355469 353.59375 124.835938 355.734375 C 128.363281 358.777344 128.152344 361.097656 128.152344 361.097656 Z M 132.894531 352.980469 C 133.023438 353.3125 133.097656 353.65625 133.125 354.007812 C 133.15625 354.496094 133.121094 354.980469 133.019531 355.457031 C 132.847656 355.207031 132.734375 354.933594 132.679688 354.636719 C 132.679688 354.621094 132.679688 354.601562 132.675781 354.585938 C 132.667969 354.464844 132.652344 354.339844 132.632812 354.21875 C 132.605469 353.628906 132.757812 353.105469 132.894531 352.980469 Z M 125.332031 347.285156 C 125.683594 347.261719 126.035156 347.289062 126.382812 347.363281 C 126.28125 347.519531 125.785156 347.746094 125.199219 347.804688 C 125.074219 347.800781 124.953125 347.804688 124.828125 347.8125 L 124.773438 347.820312 C 124.472656 347.808594 124.1875 347.738281 123.914062 347.605469 C 124.371094 347.433594 124.84375 347.328125 125.332031 347.285156 Z M 112.804688 360.207031 C 112.832031 360.175781 112.859375 360.144531 112.890625 360.109375 C 112.9375 360.164062 112.984375 360.21875 113.03125 360.273438 C 113.21875 360.496094 113.398438 360.726562 113.570312 360.960938 L 111.371094 363.511719 C 110.765625 364.214844 108.480469 365.546875 108.480469 365.546875 C 108.480469 365.546875 110.558594 362.8125 112.804688 360.207031 Z M 122.179688 368.296875 C 119.9375 370.894531 117.535156 373.355469 117.535156 373.355469 C 117.535156 373.355469 118.519531 370.898438 119.125 370.199219 L 121.320312 367.652344 C 121.582031 367.785156 121.835938 367.929688 122.082031 368.082031 C 122.144531 368.121094 122.207031 368.160156 122.265625 368.199219 Z M 122.179688 368.296875 " fill-opacity="1" fill-rule="nonzero"/></g><g mask="url(#1d74a3644d)"><g transform="matrix(1, 0, 0, 1, 0, 336)"><g clip-path="url(#232609c253)"><g clip-path="url(#2220b8b69e)"><g clip-path="url(#8ee2bdf633)"><path fill="#1d4fd8" d="M -47.207031 1.097656 L 43.328125 1.097656 L 43.328125 69 L -47.207031 69 Z M -47.207031 1.097656 " fill-opacity="1" fill-rule="nonzero"/></g></g></g></g></g><g fill="#000000" fill-opacity="1"><g transform="translate(130.093704, 449.736537)"><g><path d="M 42.09375 -90.921875 C 51.675781 -90.921875 60.050781 -89.019531 67.21875 -85.21875 C 74.382812 -81.414062 79.929688 -76.082031 83.859375 -69.21875 C 87.785156 -62.351562 89.75 -54.429688 89.75 -45.453125 C 89.75 -36.566406 87.785156 -28.664062 83.859375 -21.75 C 79.929688 -14.84375 74.363281 -9.488281 67.15625 -5.6875 C 59.945312 -1.894531 51.59375 0 42.09375 0 L 8.03125 0 L 8.03125 -90.921875 Z M 40.671875 -19.171875 C 49.046875 -19.171875 55.5625 -21.457031 60.21875 -26.03125 C 64.882812 -30.601562 67.21875 -37.078125 67.21875 -45.453125 C 67.21875 -53.828125 64.882812 -60.347656 60.21875 -65.015625 C 55.5625 -69.679688 49.046875 -72.015625 40.671875 -72.015625 L 30.171875 -72.015625 L 30.171875 -19.171875 Z M 40.671875 -19.171875 "/></g></g></g><g fill="#000000" fill-opacity="1"><g transform="translate(226.185892, 449.736537)"><g><path d="M 30.171875 -60.21875 C 32.765625 -64.195312 36.003906 -67.328125 39.890625 -69.609375 C 43.773438 -71.898438 48.09375 -73.046875 52.84375 -73.046875 L 52.84375 -49.609375 L 46.75 -49.609375 C 41.226562 -49.609375 37.082031 -48.421875 34.3125 -46.046875 C 31.550781 -43.671875 30.171875 -39.503906 30.171875 -33.546875 L 30.171875 0 L 8.03125 0 L 8.03125 -72.265625 L 30.171875 -72.265625 Z M 30.171875 -60.21875 "/></g></g></g><g fill="#000000" fill-opacity="1"><g transform="translate(283.556365, 449.736537)"><g><path d="M 19.171875 -79.78125 C 15.285156 -79.78125 12.109375 -80.921875 9.640625 -83.203125 C 7.179688 -85.492188 5.953125 -88.328125 5.953125 -91.703125 C 5.953125 -95.148438 7.179688 -98.015625 9.640625 -100.296875 C 12.109375 -102.585938 15.285156 -103.734375 19.171875 -103.734375 C 22.960938 -103.734375 26.085938 -102.585938 28.546875 -100.296875 C 31.015625 -98.015625 32.25 -95.148438 32.25 -91.703125 C 32.25 -88.328125 31.015625 -85.492188 28.546875 -83.203125 C 26.085938 -80.921875 22.960938 -79.78125 19.171875 -79.78125 Z M 30.171875 -72.265625 L 30.171875 0 L 8.03125 0 L 8.03125 -72.265625 Z M 30.171875 -72.265625 "/></g></g></g><g fill="#000000" fill-opacity="1"><g transform="translate(323.702806, 449.736537)"><g><path d="M 40.53125 -20.71875 L 56.203125 -72.265625 L 79.78125 -72.265625 L 54.140625 0 L 26.8125 0 L 1.171875 -72.265625 L 24.859375 -72.265625 Z M 40.53125 -20.71875 "/></g></g></g><g fill="#000000" fill-opacity="1"><g transform="translate(406.715077, 449.736537)"><g><path d="M 76.15625 -37.296875 C 76.15625 -35.222656 76.023438 -33.066406 75.765625 -30.828125 L 25.640625 -30.828125 C 25.984375 -26.335938 27.425781 -22.90625 29.96875 -20.53125 C 32.519531 -18.15625 35.65625 -16.96875 39.375 -16.96875 C 44.894531 -16.96875 48.738281 -19.296875 50.90625 -23.953125 L 74.46875 -23.953125 C 73.257812 -19.210938 71.078125 -14.941406 67.921875 -11.140625 C 64.773438 -7.335938 60.828125 -4.359375 56.078125 -2.203125 C 51.328125 -0.046875 46.019531 1.03125 40.15625 1.03125 C 33.070312 1.03125 26.765625 -0.476562 21.234375 -3.5 C 15.710938 -6.519531 11.394531 -10.832031 8.28125 -16.4375 C 5.175781 -22.050781 3.625 -28.617188 3.625 -36.140625 C 3.625 -43.648438 5.15625 -50.207031 8.21875 -55.8125 C 11.289062 -61.425781 15.585938 -65.742188 21.109375 -68.765625 C 26.640625 -71.796875 32.988281 -73.3125 40.15625 -73.3125 C 47.144531 -73.3125 53.359375 -71.84375 58.796875 -68.90625 C 64.234375 -65.96875 68.484375 -61.78125 71.546875 -56.34375 C 74.617188 -50.90625 76.15625 -44.554688 76.15625 -37.296875 Z M 53.484375 -43.125 C 53.484375 -46.925781 52.1875 -49.945312 49.59375 -52.1875 C 47.007812 -54.4375 43.773438 -55.5625 39.890625 -55.5625 C 36.179688 -55.5625 33.050781 -54.484375 30.5 -52.328125 C 27.957031 -50.171875 26.382812 -47.101562 25.78125 -43.125 Z M 53.484375 -43.125 "/></g></g></g><g fill="#000000" fill-opacity="1"><g transform="translate(488.432307, 449.736537)"><g><path d="M 30.171875 -73.171875 L 30.171875 -54.78125 L 59.84375 -54.78125 L 59.84375 -37.6875 L 30.171875 -37.6875 L 30.171875 -17.75 L 63.71875 -17.75 L 63.71875 0 L 8.03125 0 L 8.03125 -90.921875 L 63.71875 -90.921875 L 63.71875 -73.171875 Z M 30.171875 -73.171875 "/></g></g></g><g fill="#000000" fill-opacity="1"><g transform="translate(560.436758, 449.736537)"><g><path d="M 3.625 -36.265625 C 3.625 -43.691406 5.023438 -50.207031 7.828125 -55.8125 C 10.640625 -61.425781 14.460938 -65.742188 19.296875 -68.765625 C 24.128906 -71.796875 29.523438 -73.3125 35.484375 -73.3125 C 40.578125 -73.3125 45.046875 -72.273438 48.890625 -70.203125 C 52.734375 -68.128906 55.691406 -65.40625 57.765625 -62.03125 L 57.765625 -72.265625 L 79.90625 -72.265625 L 79.90625 0 L 57.765625 0 L 57.765625 -10.234375 C 55.609375 -6.867188 52.609375 -4.148438 48.765625 -2.078125 C 44.921875 -0.00390625 40.453125 1.03125 35.359375 1.03125 C 29.484375 1.03125 24.128906 -0.5 19.296875 -3.5625 C 14.460938 -6.625 10.640625 -10.984375 7.828125 -16.640625 C 5.023438 -22.296875 3.625 -28.835938 3.625 -36.265625 Z M 57.765625 -36.140625 C 57.765625 -41.660156 56.226562 -46.019531 53.15625 -49.21875 C 50.09375 -52.414062 46.363281 -54.015625 41.96875 -54.015625 C 37.5625 -54.015625 33.820312 -52.4375 30.75 -49.28125 C 27.6875 -46.125 26.15625 -41.785156 26.15625 -36.265625 C 26.15625 -30.734375 27.6875 -26.347656 30.75 -23.109375 C 33.820312 -19.878906 37.5625 -18.265625 41.96875 -18.265625 C 46.363281 -18.265625 50.09375 -19.859375 53.15625 -23.046875 C 56.226562 -26.242188 57.765625 -30.609375 57.765625 -36.140625 Z M 57.765625 -36.140625 "/></g></g></g><g fill="#000000" fill-opacity="1"><g transform="translate(650.312769, 449.736537)"><g><path d="M 37.4375 1.03125 C 31.125 1.03125 25.503906 -0.046875 20.578125 -2.203125 C 15.660156 -4.359375 11.773438 -7.3125 8.921875 -11.0625 C 6.078125 -14.820312 4.484375 -19.035156 4.140625 -23.703125 L 26.03125 -23.703125 C 26.289062 -21.203125 27.457031 -19.171875 29.53125 -17.609375 C 31.601562 -16.054688 34.148438 -15.28125 37.171875 -15.28125 C 39.929688 -15.28125 42.066406 -15.816406 43.578125 -16.890625 C 45.085938 -17.972656 45.84375 -19.378906 45.84375 -21.109375 C 45.84375 -23.179688 44.765625 -24.710938 42.609375 -25.703125 C 40.453125 -26.703125 36.957031 -27.804688 32.125 -29.015625 C 26.9375 -30.222656 22.613281 -31.492188 19.15625 -32.828125 C 15.707031 -34.171875 12.726562 -36.285156 10.21875 -39.171875 C 7.71875 -42.066406 6.46875 -45.976562 6.46875 -50.90625 C 6.46875 -55.039062 7.613281 -58.8125 9.90625 -62.21875 C 12.195312 -65.632812 15.566406 -68.335938 20.015625 -70.328125 C 24.460938 -72.316406 29.75 -73.3125 35.875 -73.3125 C 44.9375 -73.3125 52.078125 -71.066406 57.296875 -66.578125 C 62.523438 -62.085938 65.53125 -56.128906 66.3125 -48.703125 L 45.84375 -48.703125 C 45.5 -51.203125 44.398438 -53.1875 42.546875 -54.65625 C 40.691406 -56.125 38.253906 -56.859375 35.234375 -56.859375 C 32.640625 -56.859375 30.648438 -56.359375 29.265625 -55.359375 C 27.890625 -54.367188 27.203125 -53.007812 27.203125 -51.28125 C 27.203125 -49.21875 28.300781 -47.664062 30.5 -46.625 C 32.695312 -45.59375 36.128906 -44.554688 40.796875 -43.515625 C 46.148438 -42.128906 50.507812 -40.769531 53.875 -39.4375 C 57.238281 -38.101562 60.195312 -35.945312 62.75 -32.96875 C 65.300781 -29.988281 66.617188 -25.992188 66.703125 -20.984375 C 66.703125 -16.753906 65.515625 -12.972656 63.140625 -9.640625 C 60.765625 -6.316406 57.351562 -3.707031 52.90625 -1.8125 C 48.457031 0.0820312 43.300781 1.03125 37.4375 1.03125 Z M 37.4375 1.03125 "/></g></g></g><g fill="#000000" fill-opacity="1"><g transform="translate(724.518788, 449.736537)"><g><path d="M 76.15625 -37.296875 C 76.15625 -35.222656 76.023438 -33.066406 75.765625 -30.828125 L 25.640625 -30.828125 C 25.984375 -26.335938 27.425781 -22.90625 29.96875 -20.53125 C 32.519531 -18.15625 35.65625 -16.96875 39.375 -16.96875 C 44.894531 -16.96875 48.738281 -19.296875 50.90625 -23.953125 L 74.46875 -23.953125 C 73.257812 -19.210938 71.078125 -14.941406 67.921875 -11.140625 C 64.773438 -7.335938 60.828125 -4.359375 56.078125 -2.203125 C 51.328125 -0.046875 46.019531 1.03125 40.15625 1.03125 C 33.070312 1.03125 26.765625 -0.476562 21.234375 -3.5 C 15.710938 -6.519531 11.394531 -10.832031 8.28125 -16.4375 C 5.175781 -22.050781 3.625 -28.617188 3.625 -36.140625 C 3.625 -43.648438 5.15625 -50.207031 8.21875 -55.8125 C 11.289062 -61.425781 15.585938 -65.742188 21.109375 -68.765625 C 26.640625 -71.796875 32.988281 -73.3125 40.15625 -73.3125 C 47.144531 -73.3125 53.359375 -71.84375 58.796875 -68.90625 C 64.234375 -65.96875 68.484375 -61.78125 71.546875 -56.34375 C 74.617188 -50.90625 76.15625 -44.554688 76.15625 -37.296875 Z M 53.484375 -43.125 C 53.484375 -46.925781 52.1875 -49.945312 49.59375 -52.1875 C 47.007812 -54.4375 43.773438 -55.5625 39.890625 -55.5625 C 36.179688 -55.5625 33.050781 -54.484375 30.5 -52.328125 C 27.957031 -50.171875 26.382812 -47.101562 25.78125 -43.125 Z M 53.484375 -43.125 "/></g></g></g></svg>