<svg xmlns="http://www.w3.org/2000/svg" xmlns:xlink="http://www.w3.org/1999/xlink" width="1080" zoomAndPan="magnify" viewBox="0 0 810 809.999993" height="1080" preserveAspectRatio="xMidYMid meet" version="1.0"><defs><filter x="0%" y="0%" width="100%" height="100%" id="7daeb4aa4c"><feColorMatrix values="0 0 0 0 1 0 0 0 0 1 0 0 0 0 1 0 0 0 1 0" color-interpolation-filters="sRGB"/></filter><g/><clipPath id="ec870a2ba7"><path d="M 60.066406 315.828125 L 810 315.828125 L 810 487.59375 L 60.066406 487.59375 Z M 60.066406 315.828125 " clip-rule="nonzero"/></clipPath><mask id="876f8ab17f"><g filter="url(#7daeb4aa4c)"><rect x="-81" width="972" fill="#000000" y="-80.999999" height="971.999992" fill-opacity="0.95"/></g></mask><clipPath id="5fdd43b41a"><path d="M 0.710938 0.222656 L 115.90625 0.222656 L 115.90625 86.617188 L 0.710938 86.617188 Z M 0.710938 0.222656 " clip-rule="nonzero"/></clipPath><clipPath id="6a41dfbea9"><path d="M 29.507812 0.222656 L 115.90625 0.222656 L 87.105469 86.617188 L 0.710938 86.617188 Z M 29.507812 0.222656 " clip-rule="nonzero"/></clipPath><clipPath id="6dbb37089a"><rect x="0" width="116" y="0" height="87"/></clipPath><mask id="e6b70e87ba"><g filter="url(#7daeb4aa4c)"><rect x="-81" width="972" fill="#000000" y="-80.999999" height="971.999992" fill-opacity="0.95"/></g></mask><clipPath id="f2b32a1af6"><path d="M 0.476562 0.617188 L 115.671875 0.617188 L 115.671875 87.015625 L 0.476562 87.015625 Z M 0.476562 0.617188 " clip-rule="nonzero"/></clipPath><clipPath id="da8723f3fe"><path d="M 29.273438 0.617188 L 115.671875 0.617188 L 86.871094 87.015625 L 0.476562 87.015625 Z M 29.273438 0.617188 " clip-rule="nonzero"/></clipPath><clipPath id="fbe32c20b3"><rect x="0" width="116" y="0" height="88"/></clipPath><mask id="37ef800a08"><g filter="url(#7daeb4aa4c)"><rect x="-81" width="972" fill="#000000" y="-80.999999" height="971.999992" fill-opacity="0.95"/></g></mask><clipPath id="a545735b31"><path d="M 0.875 0.222656 L 116.074219 0.222656 L 116.074219 86.617188 L 0.875 86.617188 Z M 0.875 0.222656 " clip-rule="nonzero"/></clipPath><clipPath id="7c33a3b8c6"><path d="M 29.675781 0.222656 L 116.074219 0.222656 L 87.273438 86.617188 L 0.875 86.617188 Z M 29.675781 0.222656 " clip-rule="nonzero"/></clipPath><clipPath id="7611570720"><rect x="0" width="117" y="0" height="87"/></clipPath><mask id="c6fff09e4b"><g filter="url(#7daeb4aa4c)"><rect x="-81" width="972" fill="#000000" y="-80.999999" height="971.999992" fill-opacity="0.95"/></g></mask><clipPath id="4af5f56ec6"><path d="M 0.679688 0.617188 L 115.875 0.617188 L 115.875 87.015625 L 0.679688 87.015625 Z M 0.679688 0.617188 " clip-rule="nonzero"/></clipPath><clipPath id="fa17d23986"><path d="M 29.480469 0.617188 L 115.875 0.617188 L 87.078125 87.015625 L 0.679688 87.015625 Z M 29.480469 0.617188 " clip-rule="nonzero"/></clipPath><clipPath id="42f2d986e2"><rect x="0" width="116" y="0" height="88"/></clipPath><mask id="177478c861"><g filter="url(#7daeb4aa4c)"><rect x="-81" width="972" fill="#000000" y="-80.999999" height="971.999992" fill-opacity="0.95"/></g></mask><clipPath id="6a7fce60fb"><path d="M 0.597656 0.617188 L 115.792969 0.617188 L 115.792969 87.015625 L 0.597656 87.015625 Z M 0.597656 0.617188 " clip-rule="nonzero"/></clipPath><clipPath id="c0f7d3580c"><path d="M 29.398438 0.617188 L 115.792969 0.617188 L 86.996094 87.015625 L 0.597656 87.015625 Z M 29.398438 0.617188 " clip-rule="nonzero"/></clipPath><clipPath id="6bb70e8721"><rect x="0" width="116" y="0" height="88"/></clipPath><clipPath id="71ba2cd639"><path d="M 79.160156 329.769531 L 229.933594 329.769531 L 229.933594 477.679688 L 79.160156 477.679688 Z M 79.160156 329.769531 " clip-rule="nonzero"/></clipPath><mask id="1704b8e590"><g filter="url(#7daeb4aa4c)"><rect x="-81" width="972" fill="#000000" y="-80.999999" height="971.999992" fill-opacity="0.95"/></g></mask><clipPath id="239092c7d2"><path d="M 0 0.222656 L 115.195312 0.222656 L 115.195312 86.617188 L 0 86.617188 Z M 0 0.222656 " clip-rule="nonzero"/></clipPath><clipPath id="8ff9effbbf"><path d="M 28.800781 0.222656 L 115.195312 0.222656 L 86.398438 86.617188 L 0 86.617188 Z M 28.800781 0.222656 " clip-rule="nonzero"/></clipPath><clipPath id="8ab3d2439b"><rect x="0" width="116" y="0" height="87"/></clipPath></defs><g clip-path="url(#ec870a2ba7)"><path fill="#ffffff" d="M 60.066406 315.828125 L 810 315.828125 L 810 487.59375 L 60.066406 487.59375 Z M 60.066406 315.828125 " fill-opacity="1" fill-rule="nonzero"/></g><g mask="url(#876f8ab17f)"><g transform="matrix(1, 0, 0, 1, 172, 317)"><g clip-path="url(#6dbb37089a)"><g clip-path="url(#5fdd43b41a)"><g clip-path="url(#6a41dfbea9)"><path fill="#1d4fd8" d="M 0.710938 0.222656 L 115.90625 0.222656 L 115.90625 86.617188 L 0.710938 86.617188 Z M 0.710938 0.222656 " fill-opacity="1" fill-rule="nonzero"/></g></g></g></g></g><g mask="url(#e6b70e87ba)"><g transform="matrix(1, 0, 0, 1, 402, 403)"><g clip-path="url(#fbe32c20b3)"><g clip-path="url(#f2b32a1af6)"><g clip-path="url(#da8723f3fe)"><path fill="#1d4fd8" d="M 0.476562 0.617188 L 115.671875 0.617188 L 115.671875 87.015625 L 0.476562 87.015625 Z M 0.476562 0.617188 " fill-opacity="1" fill-rule="nonzero"/></g></g></g></g></g><g mask="url(#37ef800a08)"><g transform="matrix(1, 0, 0, 1, 344, 317)"><g clip-path="url(#7611570720)"><g clip-path="url(#a545735b31)"><g clip-path="url(#7c33a3b8c6)"><path fill="#1d4fd8" d="M 0.875 0.222656 L 116.074219 0.222656 L 116.074219 86.617188 L 0.875 86.617188 Z M 0.875 0.222656 " fill-opacity="1" fill-rule="nonzero"/></g></g></g></g></g><g mask="url(#c6fff09e4b)"><g transform="matrix(1, 0, 0, 1, 229, 403)"><g clip-path="url(#42f2d986e2)"><g clip-path="url(#4af5f56ec6)"><g clip-path="url(#fa17d23986)"><path fill="#1d4fd8" d="M 0.679688 0.617188 L 115.875 0.617188 L 115.875 87.015625 L 0.679688 87.015625 Z M 0.679688 0.617188 " fill-opacity="1" fill-rule="nonzero"/></g></g></g></g></g><g mask="url(#177478c861)"><g transform="matrix(1, 0, 0, 1, 57, 403)"><g clip-path="url(#6bb70e8721)"><g clip-path="url(#6a7fce60fb)"><g clip-path="url(#c0f7d3580c)"><path fill="#1d4fd8" d="M 0.597656 0.617188 L 115.792969 0.617188 L 115.792969 87.015625 L 0.597656 87.015625 Z M 0.597656 0.617188 " fill-opacity="1" fill-rule="nonzero"/></g></g></g></g></g><g clip-path="url(#71ba2cd639)"><path fill="#000000" d="M 140.621094 416.058594 C 139.449219 417.363281 138.195312 418.578125 136.859375 419.703125 L 137.886719 420.917969 C 139.28125 419.742188 140.589844 418.476562 141.808594 417.121094 Z M 147.480469 409.566406 L 147.210938 411.136719 C 148.941406 411.429688 150.644531 411.835938 152.324219 412.351562 L 152.792969 410.828125 C 151.050781 410.292969 149.28125 409.875 147.480469 409.566406 Z M 141.324219 450.339844 L 140.582031 451.75 C 142.234375 452.613281 143.96875 453.253906 145.785156 453.675781 L 146.144531 452.125 C 144.460938 451.734375 142.851562 451.140625 141.320312 450.335938 Z M 135.476562 445.582031 C 134.90625 444.878906 134.378906 444.144531 133.902344 443.378906 L 132.550781 444.226562 C 133.066406 445.046875 133.628906 445.832031 134.242188 446.585938 C 134.800781 447.273438 135.40625 447.921875 136.050781 448.53125 L 137.140625 447.371094 C 136.546875 446.808594 135.992188 446.214844 135.472656 445.578125 Z M 131.214844 409.453125 C 129.433594 409.710938 127.636719 410.0625 125.878906 410.488281 L 126.257812 412.035156 C 127.964844 411.617188 129.710938 411.28125 131.445312 411.027344 Z M 130.695312 433.703125 L 129.105469 433.765625 C 129.175781 435.546875 129.535156 437.386719 130.164062 439.238281 L 131.667969 438.726562 C 131.089844 437.015625 130.761719 435.328125 130.695312 433.703125 Z M 193.683594 369.167969 C 192.523438 370.480469 191.28125 371.710938 189.953125 372.855469 L 190.992188 374.0625 C 192.375 372.871094 193.671875 371.589844 194.878906 370.21875 Z M 176.058594 379.601562 C 175.277344 379.753906 174.488281 379.890625 173.726562 380.023438 C 172.765625 380.191406 171.769531 380.363281 170.78125 380.570312 L 171.105469 382.128906 C 172.066406 381.925781 173.046875 381.757812 174 381.59375 C 174.769531 381.460938 175.566406 381.320312 176.363281 381.164062 Z M 185.75 375.964844 C 184.277344 376.882812 182.726562 377.640625 181.097656 378.246094 L 181.648438 379.738281 C 183.378906 379.097656 185.023438 378.289062 186.585938 377.316406 Z M 120.667969 412.027344 C 118.945312 412.625 117.25 413.308594 115.625 414.0625 L 116.292969 415.507812 C 117.871094 414.777344 119.515625 414.109375 121.191406 413.53125 Z M 156.371094 451.949219 C 154.699219 452.398438 153 452.636719 151.269531 452.664062 L 151.296875 454.257812 C 153.15625 454.226562 154.984375 453.96875 156.785156 453.484375 Z M 157.894531 412.808594 L 157.207031 414.246094 C 158.785156 414.992188 160.292969 415.867188 161.726562 416.867188 L 162.636719 415.558594 C 161.132812 414.511719 159.550781 413.59375 157.894531 412.804688 Z M 165.351562 446.980469 C 164.242188 447.960938 163.058594 448.835938 161.796875 449.613281 C 161.582031 449.746094 161.359375 449.878906 161.136719 450.003906 L 161.917969 451.390625 C 162.160156 451.253906 162.398438 451.113281 162.632812 450.96875 C 163.96875 450.144531 165.226562 449.214844 166.40625 448.175781 Z M 173.847656 433 C 173.796875 431.355469 173.507812 429.75 172.984375 428.191406 L 171.472656 428.695312 C 171.949219 430.109375 172.210938 431.558594 172.257812 433.046875 C 172.257812 433.1875 172.261719 433.328125 172.261719 433.46875 C 172.261719 433.546875 172.261719 433.621094 172.261719 433.699219 L 173.855469 433.722656 C 173.855469 433.640625 173.855469 433.554688 173.855469 433.46875 C 173.851562 433.3125 173.851562 433.15625 173.847656 433 Z M 171.3125 438.671875 C 170.742188 440.210938 169.917969 441.722656 168.859375 443.171875 L 170.144531 444.109375 C 171.289062 442.542969 172.183594 440.898438 172.804688 439.226562 Z M 110.8125 416.609375 C 109.257812 417.558594 107.761719 418.585938 106.320312 419.695312 L 107.289062 420.960938 C 108.683594 419.886719 110.132812 418.890625 111.636719 417.972656 Z M 146.285156 407.300781 C 145.496094 409.003906 144.675781 410.511719 143.78125 411.90625 L 145.121094 412.765625 C 146.101562 411.226562 146.972656 409.628906 147.730469 407.96875 Z M 139.140625 408.871094 C 138.3125 408.871094 137.464844 408.890625 136.625 408.929688 L 136.699219 410.519531 C 137.515625 410.480469 138.335938 410.460938 139.140625 410.460938 C 140.089844 410.460938 141.042969 410.488281 141.976562 410.542969 L 142.066406 408.953125 C 141.105469 408.898438 140.121094 408.871094 139.140625 408.871094 Z M 150.402344 397.414062 C 149.675781 399 149.03125 400.632812 148.410156 402.210938 L 148.335938 402.402344 L 149.816406 402.984375 L 149.890625 402.792969 C 150.535156 401.164062 151.140625 399.625 151.847656 398.078125 Z M 156.511719 388.359375 C 155.214844 389.667969 154.058594 391.085938 153.039062 392.621094 L 154.363281 393.5 C 155.324219 392.054688 156.417969 390.714844 157.644531 389.480469 Z M 166.859375 419.050781 L 165.757812 420.207031 C 167.105469 421.496094 168.21875 422.78125 169.152344 424.136719 L 170.460938 423.234375 C 169.480469 421.804688 168.265625 420.398438 166.859375 419.050781 Z M 165.515625 382.136719 C 163.8125 382.851562 162.207031 383.742188 160.699219 384.816406 L 161.617188 386.117188 C 163.027344 385.113281 164.53125 384.277344 166.128906 383.609375 Z M 89.695312 440.867188 C 88.964844 442.527344 88.320312 444.222656 87.765625 445.949219 L 89.28125 446.4375 C 89.820312 444.761719 90.445312 443.117188 91.152344 441.503906 Z M 102.175781 423.222656 C 100.859375 424.460938 99.59375 425.78125 98.40625 427.140625 L 99.609375 428.1875 C 100.757812 426.867188 101.992188 425.585938 103.269531 424.382812 Z M 132.796875 423.367188 C 131.472656 424.859375 130.527344 426.441406 129.90625 428.195312 L 131.40625 428.726562 C 131.960938 427.171875 132.804688 425.761719 133.992188 424.421875 Z M 95.046875 431.414062 C 93.996094 432.894531 93.023438 434.425781 92.128906 436.003906 L 93.515625 436.789062 C 94.382812 435.257812 95.328125 433.769531 96.34375 432.332031 Z M 86.808594 469.582031 C 86.292969 469.582031 85.796875 469.679688 85.320312 469.878906 C 84.84375 470.074219 84.421875 470.355469 84.054688 470.722656 C 83.691406 471.085938 83.410156 471.507812 83.210938 471.984375 C 83.011719 472.460938 82.914062 472.960938 82.914062 473.476562 C 82.914062 473.992188 83.011719 474.488281 83.210938 474.964844 C 83.410156 475.441406 83.691406 475.863281 84.054688 476.230469 C 84.421875 476.59375 84.839844 476.875 85.320312 477.074219 C 85.796875 477.273438 86.292969 477.371094 86.808594 477.371094 C 87.324219 477.371094 87.824219 477.273438 88.300781 477.074219 C 88.777344 476.875 89.199219 476.59375 89.5625 476.230469 C 89.929688 475.863281 90.210938 475.445312 90.40625 474.964844 C 90.605469 474.488281 90.703125 473.992188 90.703125 473.476562 C 90.703125 472.960938 90.605469 472.464844 90.40625 471.984375 C 90.210938 471.507812 89.929688 471.085938 89.5625 470.722656 C 89.199219 470.359375 88.777344 470.078125 88.300781 469.878906 C 87.824219 469.679688 87.328125 469.582031 86.808594 469.582031 Z M 86.808594 446.152344 C 86.308594 446.152344 85.808594 446.199219 85.316406 446.296875 C 84.824219 446.394531 84.347656 446.539062 83.882812 446.734375 C 83.417969 446.925781 82.976562 447.160156 82.5625 447.4375 C 82.144531 447.71875 81.757812 448.035156 81.402344 448.390625 C 81.046875 448.746094 80.730469 449.132812 80.449219 449.546875 C 80.171875 449.964844 79.9375 450.40625 79.742188 450.871094 C 79.550781 451.335938 79.40625 451.8125 79.308594 452.304688 C 79.210938 452.796875 79.160156 453.292969 79.160156 453.796875 C 79.160156 458.917969 82.933594 463.828125 85.179688 466.300781 C 85.566406 466.726562 85.90625 467.078125 86.175781 467.347656 C 86.203125 467.375 86.230469 467.402344 86.257812 467.429688 C 86.40625 467.578125 86.589844 467.648438 86.800781 467.644531 C 87.011719 467.640625 87.1875 467.5625 87.332031 467.40625 C 89.058594 465.539062 94.457031 459.269531 94.457031 453.796875 C 94.457031 453.292969 94.40625 452.796875 94.308594 452.304688 C 94.210938 451.8125 94.066406 451.335938 93.875 450.871094 C 93.683594 450.40625 93.445312 449.964844 93.167969 449.546875 C 92.890625 449.132812 92.570312 448.746094 92.21875 448.390625 C 91.863281 448.035156 91.476562 447.71875 91.058594 447.4375 C 90.640625 447.160156 90.199219 446.925781 89.734375 446.734375 C 89.273438 446.539062 88.792969 446.394531 88.300781 446.296875 C 87.808594 446.199219 87.3125 446.152344 86.808594 446.152344 Z M 86.808594 457.125 C 86.292969 457.125 85.796875 457.027344 85.320312 456.828125 C 84.84375 456.628906 84.421875 456.347656 84.054688 455.984375 C 83.691406 455.617188 83.410156 455.199219 83.210938 454.71875 C 83.011719 454.242188 82.914062 453.746094 82.914062 453.230469 C 82.914062 452.714844 83.011719 452.214844 83.210938 451.738281 C 83.410156 451.261719 83.691406 450.839844 84.054688 450.476562 C 84.421875 450.109375 84.84375 449.828125 85.320312 449.632812 C 85.796875 449.433594 86.292969 449.335938 86.808594 449.335938 C 87.328125 449.335938 87.824219 449.433594 88.300781 449.632812 C 88.777344 449.832031 89.199219 450.113281 89.5625 450.476562 C 89.929688 450.84375 90.210938 451.265625 90.40625 451.742188 C 90.605469 452.21875 90.703125 452.714844 90.703125 453.230469 C 90.703125 453.746094 90.605469 454.246094 90.40625 454.722656 C 90.210938 455.199219 89.929688 455.621094 89.5625 455.984375 C 89.199219 456.347656 88.777344 456.628906 88.300781 456.828125 C 87.824219 457.027344 87.324219 457.125 86.808594 457.125 Z M 222.496094 350.554688 L 223.039062 349.890625 C 223.253906 349.632812 223.480469 349.386719 223.722656 349.152344 L 226.582031 346.398438 C 228.4375 344.609375 229.929688 341.542969 229.742188 338.96875 C 229.582031 336.757812 227.890625 334.980469 226.078125 333.417969 L 225.292969 332.738281 C 223.480469 331.175781 221.476562 329.769531 219.265625 329.929688 C 216.691406 330.121094 213.875 332.042969 212.375 334.144531 L 210.070312 337.375 C 209.875 337.648438 209.667969 337.910156 209.441406 338.160156 L 208.863281 338.796875 C 207.503906 337.925781 206.992188 338.929688 206.992188 338.929688 L 208.191406 339.539062 L 196.804688 352.074219 C 194.929688 354.25 191.503906 361.789062 193.675781 363.664062 L 200.125 369.222656 C 202.300781 371.097656 209.253906 366.601562 211.132812 364.429688 L 221.863281 351.328125 L 222.640625 352.425781 C 222.640625 352.425781 223.558594 351.769531 222.496094 350.554688 Z M 216.054688 356.296875 C 215.96875 356.253906 215.886719 356.210938 215.800781 356.171875 C 215.460938 356.007812 215.109375 355.855469 214.757812 355.714844 L 217.363281 352.695312 C 217.808594 352.179688 221.019531 350.125 221.019531 350.125 C 221.019531 350.125 218.695312 353.1875 216.054688 356.296875 Z M 204.339844 367.035156 C 201.695312 366.5625 199.011719 364 199.011719 364 C 199.011719 364 196.078125 361.71875 195.222656 359.175781 C 195.167969 359.011719 195.199219 358.867188 195.3125 358.742188 L 199.230469 354.507812 C 199.324219 354.410156 199.4375 354.363281 199.574219 354.371094 C 199.710938 354.378906 199.816406 354.4375 199.898438 354.546875 C 200.5 355.367188 202.113281 357.375 203.613281 358.664062 C 205.113281 359.953125 207.332031 361.257812 208.230469 361.730469 C 208.351562 361.792969 208.425781 361.890625 208.453125 362.027344 C 208.480469 362.160156 208.453125 362.28125 208.367188 362.386719 L 204.753906 366.878906 C 204.644531 367.011719 204.507812 367.066406 204.339844 367.035156 Z M 209.503906 340.195312 C 209.503906 340.195312 207.945312 343.671875 207.5 344.1875 L 204.894531 347.207031 C 204.699219 346.878906 204.5 346.554688 204.285156 346.242188 C 204.234375 346.164062 204.183594 346.089844 204.128906 346.011719 C 206.816406 342.941406 209.503906 340.191406 209.503906 340.191406 Z M 217.757812 351.472656 C 217.757812 351.472656 215.765625 348.734375 213.707031 346.960938 C 211.652344 345.1875 208.648438 343.617188 208.648438 343.617188 L 210.023438 340.828125 L 211.535156 337.765625 C 211.535156 337.765625 211.785156 337.703125 212.257812 337.71875 C 213.375 337.753906 215.742188 338.210938 218.902344 340.9375 C 223.386719 344.804688 223.121094 347.757812 223.121094 347.757812 Z M 229.15625 337.433594 C 229.316406 337.855469 229.410156 338.289062 229.445312 338.742188 C 229.484375 339.359375 229.441406 339.976562 229.3125 340.582031 C 229.09375 340.265625 228.949219 339.917969 228.882812 339.539062 C 228.882812 339.519531 228.882812 339.496094 228.878906 339.472656 C 228.867188 339.316406 228.847656 339.164062 228.816406 339.007812 C 228.785156 338.253906 228.976562 337.589844 229.15625 337.433594 Z M 219.53125 330.1875 C 219.980469 330.15625 220.425781 330.1875 220.867188 330.285156 C 220.738281 330.484375 220.109375 330.769531 219.359375 330.847656 C 219.203125 330.84375 219.046875 330.847656 218.890625 330.859375 L 218.824219 330.863281 C 218.4375 330.851562 218.074219 330.761719 217.726562 330.589844 C 218.308594 330.375 218.910156 330.238281 219.53125 330.1875 Z M 203.589844 346.628906 C 203.625 346.585938 203.664062 346.542969 203.699219 346.503906 C 203.761719 346.570312 203.820312 346.640625 203.878906 346.710938 C 204.117188 346.992188 204.347656 347.285156 204.5625 347.585938 L 201.769531 350.828125 C 200.996094 351.722656 198.09375 353.421875 198.09375 353.421875 C 198.09375 353.421875 200.734375 349.941406 203.589844 346.628906 Z M 215.519531 356.917969 C 212.664062 360.226562 209.609375 363.351562 209.609375 363.351562 C 209.609375 363.351562 210.859375 360.230469 211.632812 359.335938 L 214.429688 356.097656 C 214.757812 356.269531 215.082031 356.449219 215.398438 356.644531 C 215.476562 356.695312 215.550781 356.742188 215.628906 356.792969 Z M 215.519531 356.917969 " fill-opacity="1" fill-rule="nonzero"/></g><g mask="url(#1704b8e590)"><g transform="matrix(1, 0, 0, 1, 0, 317)"><g clip-path="url(#8ab3d2439b)"><g clip-path="url(#239092c7d2)"><g clip-path="url(#8ff9effbbf)"><path fill="#1d4fd8" d="M 0 0.222656 L 115.195312 0.222656 L 115.195312 86.617188 L 0 86.617188 Z M 0 0.222656 " fill-opacity="1" fill-rule="nonzero"/></g></g></g></g></g><g fill="#000000" fill-opacity="1"><g transform="translate(237.687522, 460.538243)"><g><path d="M 53.546875 -115.671875 C 65.742188 -115.671875 76.398438 -113.253906 85.515625 -108.421875 C 94.640625 -103.585938 101.695312 -96.800781 106.6875 -88.0625 C 111.6875 -79.332031 114.1875 -69.257812 114.1875 -57.84375 C 114.1875 -46.519531 111.6875 -36.460938 106.6875 -27.671875 C 101.695312 -18.890625 94.613281 -12.082031 85.4375 -7.25 C 76.269531 -2.414062 65.640625 0 53.546875 0 L 10.21875 0 L 10.21875 -115.671875 Z M 51.734375 -24.390625 C 62.390625 -24.390625 70.679688 -27.300781 76.609375 -33.125 C 82.546875 -38.945312 85.515625 -47.1875 85.515625 -57.84375 C 85.515625 -68.5 82.546875 -76.789062 76.609375 -82.71875 C 70.679688 -88.65625 62.390625 -91.625 51.734375 -91.625 L 38.390625 -91.625 L 38.390625 -24.390625 Z M 51.734375 -24.390625 "/></g></g></g><g fill="#000000" fill-opacity="1"><g transform="translate(359.949833, 460.538243)"><g><path d="M 38.390625 -76.625 C 41.691406 -81.675781 45.8125 -85.65625 50.75 -88.5625 C 55.695312 -91.476562 61.191406 -92.9375 67.234375 -92.9375 L 67.234375 -63.109375 L 59.484375 -63.109375 C 52.453125 -63.109375 47.175781 -61.597656 43.65625 -58.578125 C 40.144531 -55.554688 38.390625 -50.253906 38.390625 -42.671875 L 38.390625 0 L 10.21875 0 L 10.21875 -91.953125 L 38.390625 -91.953125 Z M 38.390625 -76.625 "/></g></g></g><g fill="#000000" fill-opacity="1"><g transform="translate(432.944806, 460.538243)"><g><path d="M 24.390625 -101.5 C 19.441406 -101.5 15.398438 -102.953125 12.265625 -105.859375 C 9.140625 -108.773438 7.578125 -112.378906 7.578125 -116.671875 C 7.578125 -121.054688 9.140625 -124.703125 12.265625 -127.609375 C 15.398438 -130.523438 19.441406 -131.984375 24.390625 -131.984375 C 29.222656 -131.984375 33.203125 -130.523438 36.328125 -127.609375 C 39.460938 -124.703125 41.03125 -121.054688 41.03125 -116.671875 C 41.03125 -112.378906 39.460938 -108.773438 36.328125 -105.859375 C 33.203125 -102.953125 29.222656 -101.5 24.390625 -101.5 Z M 38.390625 -91.953125 L 38.390625 0 L 10.21875 0 L 10.21875 -91.953125 Z M 38.390625 -91.953125 "/></g></g></g><g fill="#000000" fill-opacity="1"><g transform="translate(484.024885, 460.538243)"><g><path d="M 51.578125 -26.359375 L 71.515625 -91.953125 L 101.5 -91.953125 L 68.875 0 L 34.109375 0 L 1.484375 -91.953125 L 31.640625 -91.953125 Z M 51.578125 -26.359375 "/></g></g></g><g fill="#000000" fill-opacity="1"><g transform="translate(589.645043, 460.538243)"><g><path d="M 96.890625 -47.453125 C 96.890625 -44.816406 96.722656 -42.070312 96.390625 -39.21875 L 32.625 -39.21875 C 33.0625 -33.507812 34.898438 -29.144531 38.140625 -26.125 C 41.390625 -23.101562 45.375 -21.59375 50.09375 -21.59375 C 57.125 -21.59375 62.015625 -24.554688 64.765625 -30.484375 L 94.75 -30.484375 C 93.207031 -24.441406 90.429688 -19.003906 86.421875 -14.171875 C 82.410156 -9.335938 77.382812 -5.546875 71.34375 -2.796875 C 65.300781 -0.0546875 58.546875 1.3125 51.078125 1.3125 C 42.066406 1.3125 34.046875 -0.609375 27.015625 -4.453125 C 19.992188 -8.296875 14.503906 -13.785156 10.546875 -20.921875 C 6.585938 -28.066406 4.609375 -36.414062 4.609375 -45.96875 C 4.609375 -55.53125 6.554688 -63.878906 10.453125 -71.015625 C 14.359375 -78.160156 19.828125 -83.65625 26.859375 -87.5 C 33.890625 -91.34375 41.960938 -93.265625 51.078125 -93.265625 C 59.972656 -93.265625 67.878906 -91.394531 74.796875 -87.65625 C 81.722656 -83.925781 87.132812 -78.597656 91.03125 -71.671875 C 94.9375 -64.753906 96.890625 -56.679688 96.890625 -47.453125 Z M 68.0625 -54.875 C 68.0625 -59.707031 66.410156 -63.550781 63.109375 -66.40625 C 59.816406 -69.257812 55.695312 -70.6875 50.75 -70.6875 C 46.03125 -70.6875 42.046875 -69.3125 38.796875 -66.5625 C 35.554688 -63.820312 33.554688 -59.925781 32.796875 -54.875 Z M 68.0625 -54.875 "/></g></g></g><g fill="#000000" fill-opacity="1"><g transform="translate(693.617464, 460.538243)"><g><path d="M 96.890625 -47.453125 C 96.890625 -44.816406 96.722656 -42.070312 96.390625 -39.21875 L 32.625 -39.21875 C 33.0625 -33.507812 34.898438 -29.144531 38.140625 -26.125 C 41.390625 -23.101562 45.375 -21.59375 50.09375 -21.59375 C 57.125 -21.59375 62.015625 -24.554688 64.765625 -30.484375 L 94.75 -30.484375 C 93.207031 -24.441406 90.429688 -19.003906 86.421875 -14.171875 C 82.410156 -9.335938 77.382812 -5.546875 71.34375 -2.796875 C 65.300781 -0.0546875 58.546875 1.3125 51.078125 1.3125 C 42.066406 1.3125 34.046875 -0.609375 27.015625 -4.453125 C 19.992188 -8.296875 14.503906 -13.785156 10.546875 -20.921875 C 6.585938 -28.066406 4.609375 -36.414062 4.609375 -45.96875 C 4.609375 -55.53125 6.554688 -63.878906 10.453125 -71.015625 C 14.359375 -78.160156 19.828125 -83.65625 26.859375 -87.5 C 33.890625 -91.34375 41.960938 -93.265625 51.078125 -93.265625 C 59.972656 -93.265625 67.878906 -91.394531 74.796875 -87.65625 C 81.722656 -83.925781 87.132812 -78.597656 91.03125 -71.671875 C 94.9375 -64.753906 96.890625 -56.679688 96.890625 -47.453125 Z M 68.0625 -54.875 C 68.0625 -59.707031 66.410156 -63.550781 63.109375 -66.40625 C 59.816406 -69.257812 55.695312 -70.6875 50.75 -70.6875 C 46.03125 -70.6875 42.046875 -69.3125 38.796875 -66.5625 C 35.554688 -63.820312 33.554688 -59.925781 32.796875 -54.875 Z M 68.0625 -54.875 "/></g></g></g></svg>